<?xml version="1.0" standalone="no"?>
<!DOCTYPE svg PUBLIC "-//W3C//DTD SVG 20010904//EN"
 "http://www.w3.org/TR/2001/REC-SVG-20010904/DTD/svg10.dtd">
<svg version="1.0" xmlns="http://www.w3.org/2000/svg"
 width="638.000000pt" height="192.000000pt" viewBox="0 0 638.000000 192.000000"
 preserveAspectRatio="xMidYMid meet">

<g transform="translate(0.000000,192.000000) scale(0.100000,-0.100000)"
fill="#000000" stroke="none">
<path d="M1510 1435 l0 -295 40 0 40 0 0 135 0 135 120 0 120 0 0 -135 0 -135
35 0 35 0 0 295 0 295 -35 0 -35 0 0 -125 0 -125 -120 0 -120 0 0 125 0 125
-40 0 -40 0 0 -295z"/>
<path d="M2850 1715 c-15 -18 -6 -61 16 -69 24 -9 54 12 54 37 0 43 -44 63
-70 32z"/>
<path d="M5920 1718 c0 -7 9 -27 20 -45 38 -64 152 -67 199 -6 31 39 28 63 -9
63 -19 0 -30 -5 -30 -14 0 -23 -29 -46 -59 -46 -28 0 -61 26 -61 48 0 7 -13
12 -30 12 -17 0 -30 -5 -30 -12z"/>
<path d="M385 1663 c-26 -228 -79 -419 -162 -586 l-34 -69 44 -86 c82 -160
126 -320 147 -532 6 -57 14 -108 18 -112 5 -5 109 -7 232 -6 l224 3 7 35 c4
19 15 84 24 143 23 152 66 292 135 435 l60 123 -40 79 c-75 150 -149 395 -175
583 l-6 47 -234 0 -234 0 -6 -57z m435 -19 c0 -95 88 -397 161 -553 l39 -85
-34 -66 c-76 -143 -134 -336 -159 -520 l-13 -95 -189 0 -190 0 -8 85 c-16 190
-72 395 -142 529 l-35 67 35 76 c71 154 126 357 141 516 l7 72 193 0 194 0 0
-26z"/>
<path d="M631 987 c-79 -315 -146 -578 -149 -584 -3 -10 29 -13 141 -13 l146
0 5 33 c3 17 11 61 16 97 17 102 66 279 100 360 18 41 37 87 43 102 9 22 6 37
-21 95 -40 88 -87 240 -113 367 -11 56 -21 104 -22 108 -1 4 -67 -250 -146
-565z"/>
<path d="M2093 1561 c-25 -12 -48 -32 -57 -50 -25 -48 -21 -61 19 -61 24 0 35
5 35 15 0 25 38 55 70 55 43 0 70 -31 70 -80 l0 -40 -52 0 c-92 0 -154 -48
-165 -127 -6 -46 15 -101 47 -120 10 -7 36 -15 57 -19 30 -4 45 -1 75 20 36
24 37 24 43 5 5 -13 15 -19 38 -19 l32 0 -3 172 c-4 199 -13 231 -66 253 -47
20 -92 18 -143 -4z m137 -265 c0 -47 -4 -57 -26 -75 -73 -58 -160 13 -108 87
20 29 48 41 97 41 l37 1 0 -54z"/>
<path d="M3120 1569 c-43 -18 -80 -61 -95 -113 -30 -100 -10 -228 42 -278 16
-15 49 -32 75 -39 42 -12 53 -11 95 7 57 23 88 65 103 139 22 106 -9 221 -72
268 -31 23 -111 32 -148 16z m101 -59 c35 -20 53 -69 53 -156 0 -62 -4 -88
-20 -114 -23 -41 -66 -57 -107 -41 -78 30 -92 244 -20 301 28 22 64 26 94 10z"/>
<path d="M3931 1562 c-36 -18 -65 -52 -76 -89 -6 -21 -3 -23 27 -23 26 0 37 6
50 30 18 32 54 46 92 36 25 -6 46 -48 46 -92 0 -22 -4 -24 -52 -24 -68 -1
-132 -29 -152 -69 -19 -36 -21 -106 -3 -141 29 -58 120 -74 179 -30 l28 21 0
-21 c0 -17 6 -20 38 -20 l38 0 -3 63 c-1 34 -4 114 -6 178 -4 132 -15 161 -72
185 -46 19 -93 18 -134 -4z m139 -262 c0 -66 -30 -100 -88 -100 -47 0 -62 14
-62 60 0 59 36 89 108 90 l42 0 0 -50z"/>
<path d="M2420 1355 l0 -215 135 0 135 0 0 -65 0 -65 30 0 c26 0 30 4 31 28 0
15 3 57 5 95 5 67 5 67 -20 67 l-26 0 0 185 0 185 -35 0 -35 0 0 -185 0 -186
-76 3 -76 3 2 183 1 182 -36 0 -35 0 0 -215z"/>
<path d="M2840 1355 l0 -215 40 0 40 0 0 215 0 215 -40 0 -40 0 0 -215z"/>
<path d="M3440 1355 l0 -215 35 0 35 0 0 90 0 90 80 0 80 0 0 -90 0 -90 35 0
35 0 0 215 0 215 -35 0 -35 0 0 -95 0 -96 -77 3 -78 3 -3 93 -3 92 -34 0 -35
0 0 -215z"/>
<path d="M4299 1553 c0 -10 -4 -81 -8 -158 -9 -147 -19 -182 -56 -187 -15 -2
-20 -10 -20 -33 0 -71 103 -24 126 58 7 23 15 94 18 157 l6 115 58 3 57 3 0
-186 0 -185 35 0 35 0 0 215 0 215 -125 0 c-112 0 -125 -2 -126 -17z"/>
<path d="M4670 1355 l0 -215 90 0 c107 0 151 15 180 62 39 64 18 173 -39 202
-18 10 -56 16 -96 16 l-65 0 0 75 0 75 -35 0 -35 0 0 -215z m204 -17 c23 -32
20 -94 -4 -118 -15 -15 -33 -20 -75 -20 l-55 0 0 80 0 80 59 0 c51 0 62 -3 75
-22z"/>
<path d="M5060 1355 l0 -215 35 0 35 0 0 90 0 90 80 0 80 0 0 -90 0 -90 35 0
35 0 0 215 0 215 -35 0 -34 0 -3 -92 -3 -93 -77 -3 -78 -3 0 96 0 95 -35 0
-35 0 0 -215z"/>
<path d="M5480 1355 l0 -215 33 0 c32 0 34 3 109 153 l77 152 0 -152 1 -153
35 0 35 0 0 215 0 215 -36 0 -35 0 -74 -152 -74 -153 0 153 -1 152 -35 0 -35
0 0 -215z"/>
<path d="M5890 1355 l0 -215 38 1 37 0 75 152 75 152 3 -152 3 -153 34 0 35 0
0 215 0 215 -35 0 -35 0 -77 -152 -78 -153 -3 153 -3 152 -34 0 -35 0 0 -215z"/>
<path d="M1749 867 c-9 -13 -41 -30 -71 -40 -63 -20 -98 -52 -130 -122 -20
-44 -23 -65 -23 -185 0 -118 3 -139 21 -170 64 -110 213 -107 269 5 31 61 29
206 -3 258 -44 70 -128 88 -196 42 -40 -27 -44 -20 -20 31 21 44 55 67 126 88
60 17 81 37 93 89 7 25 5 27 -21 27 -18 -1 -35 -9 -45 -23z m-28 -257 c31 -17
49 -64 49 -132 0 -108 -48 -166 -117 -142 -76 26 -88 231 -16 273 23 13 59 14
84 1z"/>
<path d="M3450 859 c0 -6 34 -104 76 -217 79 -215 83 -237 49 -289 -9 -14 -25
-23 -40 -23 -21 0 -25 -5 -25 -30 0 -27 3 -30 30 -30 43 0 80 20 97 54 14 26
193 531 193 543 0 2 -19 3 -42 1 l-43 -3 -49 -157 c-28 -87 -53 -158 -56 -158
-4 0 -31 71 -61 158 l-54 157 -38 3 c-23 2 -37 -1 -37 -9z"/>
<path d="M5127 853 c-11 -11 -8 -48 5 -61 34 -34 90 6 68 48 -10 20 -58 28
-73 13z"/>
<path d="M5302 848 c-27 -27 -6 -68 35 -68 31 0 52 42 33 65 -15 18 -51 20
-68 3z"/>
<path d="M2022 690 c-27 -17 -62 -70 -62 -95 0 -3 16 -5 35 -5 19 0 35 5 35
10 0 24 41 50 78 50 49 0 62 -14 62 -67 0 -41 -1 -43 -31 -43 -140 0 -214 -94
-167 -213 23 -60 123 -77 177 -31 30 25 31 25 31 5 0 -18 6 -21 39 -21 l38 0
-8 43 c-4 23 -8 101 -9 174 0 145 -8 176 -51 199 -42 21 -127 18 -167 -6z
m148 -264 c0 -47 -4 -57 -26 -75 -32 -25 -76 -27 -98 -5 -9 9 -16 32 -16 54 0
51 35 80 96 80 l44 0 0 -54z"/>
<path d="M2400 495 l0 -215 35 0 35 0 0 90 0 90 75 0 75 0 0 -90 0 -90 35 0
35 0 0 216 0 215 -32 -3 -33 -3 -3 -92 -3 -93 -74 0 -75 0 0 95 0 95 -35 0
-35 0 0 -215z"/>
<path d="M2850 496 l0 -216 35 0 35 0 0 90 c0 83 1 90 20 90 14 0 37 -26 78
-87 56 -86 59 -88 100 -91 23 -2 42 -1 42 2 0 3 -31 51 -70 107 -38 56 -70
106 -70 111 0 5 29 50 65 100 36 50 65 95 65 100 0 5 -17 8 -37 6 -36 -3 -42
-8 -98 -95 -80 -123 -93 -123 -97 0 l-3 92 -32 3 -33 3 0 -215z"/>
<path d="M3910 495 l0 -215 35 0 35 0 0 90 c0 87 1 90 23 90 17 -1 35 -21 79
-90 56 -89 58 -90 98 -90 22 0 40 3 40 6 0 3 -32 52 -71 110 l-71 104 17 28
c10 15 40 57 66 94 27 37 49 72 49 78 0 5 -16 10 -35 10 -34 0 -39 -5 -96 -92
-36 -56 -68 -93 -77 -93 -14 0 -17 14 -20 93 l-3 92 -34 0 -35 0 0 -215z"/>
<path d="M4340 410 l0 -300 35 0 35 0 0 101 0 100 26 -20 c57 -45 161 -15 190
55 21 51 28 170 14 239 -17 84 -59 125 -126 125 -31 0 -61 -7 -81 -20 -33 -20
-33 -20 -33 0 0 16 -7 20 -30 20 l-30 0 0 -300z m197 225 c56 -39 58 -243 2
-287 -26 -22 -77 -23 -107 -2 -21 14 -22 22 -22 144 0 122 1 130 22 144 29 20
77 20 105 1z"/>
<path d="M4854 701 c-29 -13 -74 -69 -74 -92 0 -15 7 -19 35 -19 23 0 35 5 35
13 0 24 36 47 73 47 42 0 67 -28 67 -76 0 -31 -1 -31 -60 -37 -115 -12 -164
-61 -157 -155 5 -70 35 -102 102 -109 38 -5 52 -2 77 17 28 20 32 21 40 6 5
-9 22 -16 41 -16 l32 0 -3 142 c-3 184 -8 223 -36 255 -20 23 -32 27 -87 30
-35 1 -73 -1 -85 -6z m136 -265 c0 -58 -7 -74 -41 -91 -60 -31 -109 -8 -109
52 0 53 36 83 100 83 l50 0 0 -44z"/>
<path d="M5210 495 l0 -215 35 0 35 0 0 215 0 215 -35 0 -35 0 0 -215z"/>
<path d="M5440 495 l0 -215 35 0 35 0 0 90 0 90 80 0 80 0 0 -90 0 -90 35 0
35 0 -2 213 -3 212 -32 3 -33 3 0 -95 0 -96 -80 0 -80 0 0 95 0 95 -35 0 -35
0 0 -215z"/>
<path d="M5890 495 l0 -215 38 0 37 0 77 153 77 152 0 -152 1 -153 35 0 35 0
0 215 0 215 -35 0 -35 0 -77 -152 -78 -153 -3 153 -3 152 -34 0 -35 0 0 -215z"/>
</g>
</svg>
